<?xml version="1.0" encoding="UTF-8"?>
<svg width="705px" height="684px" viewBox="0 0 705 684" version="1.1" xmlns="http://www.w3.org/2000/svg" xmlns:xlink="http://www.w3.org/1999/xlink">
    <!-- Generator: Sketch 50.2 (55047) - http://www.bohemiancoding.com/sketch -->
    <title>kubewebhook_logo</title>
    <desc>Created with Sketch.</desc>
    <defs></defs>
    <g id="kubewebhook_logo" stroke="none" stroke-width="1" fill="none" fill-rule="evenodd">
        <g id="kubewebhook" transform="translate(1.000000, 1.000000)" fill-rule="nonzero">
            <path d="M348.986406,0.0601 C342.773022,0.373099241 336.685225,1.91364132 331.080156,4.59135 L86.7364058,121.34135 C73.9254617,127.459483 64.6204493,139.030364 61.4551558,152.77885 L1.1739058,415.02885 C-1.63835525,427.236236 0.649916048,440.05281 7.5176558,450.5601 C8.34190884,451.831496 9.22838522,453.062134 10.1739058,454.2476 L179.298906,664.52885 C188.166865,675.551158 201.612381,681.96912 215.830156,681.96635 L487.048906,681.90385 C501.261363,681.914208 514.705931,675.508199 523.580156,664.4976 L692.642656,454.1851 C701.51536,443.157268 704.839681,428.721202 701.673906,414.96635 L641.298906,152.71635 C638.133612,138.967864 628.8286,127.396983 616.017656,121.27885 L371.642656,4.59135 C364.592323,1.22300487 356.801915,-0.335076788 348.986406,0.0601 Z" id="kubernetesbg" stroke="#FFFFFF" fill="#326CE5"></path>
            <g id="webhook" transform="translate(108.000000, 103.000000)" fill="#FFFFFF">
                <path d="M203.611101,139.667052 C190.336471,116.697385 198.193995,87.3157549 221.16193,74.0401251 C244.13123,60.7641292 273.513227,68.6230189 286.788856,91.5909536 C295.801951,107.185816 295.064714,125.730748 286.480679,140.188733 L334.372515,223.047639 C385.837841,205.87108 444.143611,226.610523 472.328857,275.374246 C504.531309,331.089963 485.402899,402.615341 429.686316,434.817294 C382.016921,462.371107 322.77587,452.339617 286.490057,413.97249 L318.786851,379.778801 C340.292134,404.336559 376.90858,411.153013 406.217302,394.212818 C439.541604,374.951433 450.983401,332.169661 431.722515,298.844492 C412.46163,265.519324 369.678992,254.077027 336.354189,273.339279 L316.051702,285.074219 L245.873972,163.657613 C229.061405,163.877833 212.623829,155.260548 203.611101,139.667052 Z M368.64523,284.044119 C395.174859,284.032786 416.691336,305.528416 416.704401,332.057046 C416.7171,358.587041 395.220104,380.103152 368.691474,380.116217 C350.67938,380.124355 334.987617,370.213423 326.758652,355.550438 L231.054816,355.596531 C220.19749,408.755091 173.083719,448.879647 116.760474,448.906925 C52.4080218,448.937208 0.0294321529,396.608829 1.490994e-05,332.255877 C-0.0275903336,277.196063 38.2804604,230.907554 89.650274,218.666681 L103.11448,263.733369 C71.0941968,270.078612 46.8827506,298.381157 46.899029,332.233352 C46.9177265,370.723737 78.2469302,402.02351 116.737815,402.005678 C155.2287,401.987847 186.529339,370.658143 186.510141,332.166892 L186.498629,308.716952 L326.737359,308.649558 C334.952926,293.979338 350.634501,284.052622 368.64523,284.044119 Z M158.971574,358.948191 C145.716574,381.929191 116.342574,389.815191 93.3615743,376.562191 C70.3795743,363.308191 62.4945743,333.933191 75.7475743,310.952191 C84.7465743,295.349191 101.175574,286.715191 117.988574,286.920191 L165.800574,204.015191 C125.192574,168.033191 114.000574,107.169191 142.138574,58.3781907 C174.288574,2.63219065 245.795574,-16.5648093 301.541574,15.5861907 C349.238574,43.0921907 370.171574,99.4121907 355.087574,150.020191 L309.326574,139.147191 C319.841574,108.244191 307.436574,73.1251907 278.111574,56.2131907 C244.768574,36.9841907 201.997574,48.4661907 182.767574,81.8091907 C163.537574,115.152191 175.019574,157.924191 208.363574,177.153191 L228.677574,188.868191 L158.616574,310.352191 C167.213574,324.802191 167.969574,343.346191 158.971574,358.948191 Z" id="Combined-Shape"></path>
            </g>
        </g>
    </g>
</svg>